<?xml version="1.0" encoding="UTF-8"?>
<svg version="1.1" xmlns="http://www.w3.org/2000/svg" width="122" height="121">
<path d="M0 0 C1.00732178 0.00974854 2.01464355 0.01949707 3.05249023 0.02954102 C19.05028958 0.40985779 31.72032627 6.95427985 43.625 17.4375 C43.625 18.0975 43.625 18.7575 43.625 19.4375 C44.285 19.4375 44.945 19.4375 45.625 19.4375 C47.18438897 21.38523101 48.6032993 23.31471746 50 25.375 C50.40484619 25.96821045 50.80969238 26.5614209 51.22680664 27.17260742 C60.65546184 41.26694957 62.71719825 56.8692285 60.3203125 73.55908203 C57.74653217 86.00449175 50.32974801 95.56297854 41.625 104.4375 C41.08359375 105.00339844 40.5421875 105.56929688 39.984375 106.15234375 C28.49574451 117.08975207 12.54043999 120.94940477 -2.81860352 120.85961914 C-19.85866124 120.37221244 -33.42142869 113.37060287 -45.375 101.4375 C-46.0246875 100.79941406 -46.674375 100.16132812 -47.34375 99.50390625 C-58.22150634 88.02978169 -61.89097054 73.09979916 -61.7265625 57.67626953 C-61.16238046 40.3394257 -53.58174707 27.2009853 -41.375 15.4375 C-29.56870963 4.76492625 -15.84745572 -0.1726769 0 0 Z " fill="#038338" transform="translate(61.375,-0.4375)"/>
<path d="M0 0 C3.485625 -0.061875 6.97125 -0.12375 10.5625 -0.1875 C12.18973999 -0.22846802 12.18973999 -0.22846802 13.84985352 -0.27026367 C19.68296295 -0.32016517 23.886569 0.10309053 29 3 C30.58200941 6.16401881 30.06168567 9.53874837 30 13 C29.7763932 15.9254644 29.7763932 15.9254644 31 18 C31.45723173 24.1726283 31.45723173 24.1726283 29.6875 27.375 C26.55986481 30.38679685 23.35625337 30.11855966 19.23828125 30.09765625 C17.72681519 30.09390991 17.72681519 30.09390991 16.18481445 30.09008789 C14.2680188 30.07643188 14.2680188 30.07643188 12.3125 30.0625 C6.2178125 30.0315625 6.2178125 30.0315625 0 30 C0 20.1 0 10.2 0 0 Z " fill="#F2FBF6" transform="translate(67,43)"/>
<path d="M0 0 C3.6166216 1.73863277 5.28661603 2.79125218 7.56640625 6.2109375 C7.56640625 7.2009375 7.56640625 8.1909375 7.56640625 9.2109375 C1.95640625 9.2109375 -3.65359375 9.2109375 -9.43359375 9.2109375 C-7.57734375 9.4378125 -5.72109375 9.6646875 -3.80859375 9.8984375 C1.83844964 10.85963637 4.95567148 11.69751904 8.56640625 16.2109375 C9.25390625 19.7109375 9.25390625 19.7109375 8.56640625 23.2109375 C5.65623197 26.95259015 3.0182005 28.75281358 -1.43359375 30.2109375 C-9.14538038 31.01014015 -15.03366075 30.58421947 -21.30859375 25.7734375 C-22.43359375 24.2109375 -22.43359375 24.2109375 -22.43359375 20.2109375 C-15.99288904 20.10438172 -9.80718086 20.24888662 -3.43359375 21.2109375 C-3.43359375 20.5509375 -3.43359375 19.8909375 -3.43359375 19.2109375 C-4.15804687 19.18515625 -4.8825 19.159375 -5.62890625 19.1328125 C-12.32249369 18.74012204 -16.58114127 18.06338998 -21.43359375 13.2109375 C-22.24692887 6.23949361 -22.24692887 6.23949361 -20.1640625 3.60546875 C-14.15020056 -1.38413446 -7.50907299 -2.43472351 0 0 Z " fill="#F0FAF4" transform="translate(47.43359375,43.7890625)"/>
<path d="M0 0 C5.61 0.33 11.22 0.66 17 1 C16.67 1.99 16.34 2.98 16 4 C16.99 4 17.98 4 19 4 C20.59138085 8.17737474 21.21278058 11.53160785 21 16 C20.34 16 19.68 16 19 16 C18.773125 16.598125 18.54625 17.19625 18.3125 17.8125 C16.24981553 21.25030744 13.46565096 22.56426593 9.6875 23.6875 C3.95476357 24.35409726 -1.35219377 24.12956125 -7 23 C-7 22.34 -7 21.68 -7 21 C-7.99 21 -8.98 21 -10 21 C-9.505 19.515 -9.505 19.515 -9 18 C-8.2575 18.495 -7.515 18.99 -6.75 19.5 C-1.22909233 22.2342884 5.75656451 22.071088 11.51953125 20.16796875 C15.44688745 18.34032287 15.44688745 18.34032287 18 15 C18.43516226 11.0835397 18.67402689 8.89067838 16.25 5.6875 C12.08852787 3.52673562 8.17402959 3.0451889 3.546875 2.4921875 C2.28617188 2.24855469 2.28617188 2.24855469 1 2 C0.67 1.34 0.34 0.68 0 0 Z " fill="#1D7745" transform="translate(37,52)"/>
<path d="M0 0 C0.66 0 1.32 0 2 0 C2 9.57 2 19.14 2 29 C1.34 29 0.68 29 0 29 C-0.16729064 25.03092526 -0.32788226 21.06164279 -0.48217773 17.09204102 C-0.53565802 15.74072921 -0.59099194 14.38948948 -0.64819336 13.03833008 C-0.72993571 11.09997011 -0.80453323 9.16131296 -0.87890625 7.22265625 C-0.9260376 6.05484619 -0.97316895 4.88703613 -1.02172852 3.68383789 C-1 1 -1 1 0 0 Z " fill="#1E7B45" transform="translate(65,44)"/>
<path d="M0 0 C3.62484173 -0.08837761 7.24940017 -0.14084706 10.875 -0.1875 C12.39480469 -0.22520508 12.39480469 -0.22520508 13.9453125 -0.26367188 C20.81283888 -0.32970578 26.55345546 0.6220883 33 3 C33 3.33 33 3.66 33 4 C25.57142857 4.14285714 25.57142857 4.14285714 22 3 C22 2.34 22 1.68 22 1 C20.04098546 1.11382653 18.0827662 1.24141125 16.125 1.375 C14.48917969 1.47941406 14.48917969 1.47941406 12.8203125 1.5859375 C9.86953526 1.73253491 9.86953526 1.73253491 8 4 C7.01 4 6.02 4 5 4 C5 3.34 5 2.68 5 2 C3.35 1.67 1.7 1.34 0 1 C0 0.67 0 0.34 0 0 Z " fill="#279D59" transform="translate(50,0)"/>
<path d="M0 0 C0.66 0 1.32 0 2 0 C2 1.32 2 2.64 2 4 C2.99 4.33 3.98 4.66 5 5 C4.34 8.3 3.68 11.6 3 15 C1.68 15.33 0.36 15.66 -1 16 C-0.67 15.484375 -0.34 14.96875 0 14.4375 C1.64926094 10.41742646 1.64926094 6.58257354 0 2.5625 C-0.33 2.046875 -0.66 1.53125 -1 1 C-0.67 0.67 -0.34 0.34 0 0 Z " fill="#147740" transform="translate(96,56)"/>
<path d="M0 0 C2.0625 0.4375 2.0625 0.4375 4 1 C2.3790787 2.17232685 0.75313167 3.3377077 -0.875 4.5 C-1.77992187 5.1496875 -2.68484375 5.799375 -3.6171875 6.46875 C-6 8 -6 8 -8 8 C-7.875 6.1875 -7.875 6.1875 -7 4 C-4 2.3125 -4 2.3125 -1 1 C-0.67 0.67 -0.34 0.34 0 0 Z " fill="#28834F" transform="translate(97,105)"/>
<path d="M0 0 C0 0.66 0 1.32 0 2 C-6.27 1.67 -12.54 1.34 -19 1 C-19 0.67 -19 0.34 -19 0 C-12.41816638 -0.8931507 -6.57849492 -0.95494281 0 0 Z " fill="#358358" transform="translate(44,63)"/>
<path d="M0 0 C2.64 0 5.28 0 8 0 C8 1.32 8 2.64 8 4 C5.36 4 2.72 4 0 4 C0 2.68 0 1.36 0 0 Z " fill="#25794C" transform="translate(78,62)"/>
<path d="M0 0 C0.33 0 0.66 0 1 0 C1.185625 1.0725 1.37125 2.145 1.5625 3.25 C2.23076135 5.69039144 2.6966266 6.7568809 4.69140625 8.35546875 C6.41659751 9.32087881 8.20599015 10.16943988 10 11 C10 11.33 10 11.66 10 12 C8.35 12 6.7 12 5 12 C5 11.34 5 10.68 5 10 C3.68 10 2.36 10 1 10 C1 9.01 1 8.02 1 7 C0.34 7 -0.32 7 -1 7 C-0.67 4.69 -0.34 2.38 0 0 Z " fill="#1D7A46" transform="translate(25,51)"/>
<path d="M0 0 C2.31 0 4.62 0 7 0 C7 1.32 7 2.64 7 4 C4.69 4 2.38 4 0 4 C0 2.68 0 1.36 0 0 Z " fill="#327C54" transform="translate(78,51)"/>
<path d="M0 0 C3.39417765 3.12621626 5.6062718 5.56541027 7 10 C4.83125748 9.49396008 3.00032373 9.00016187 1 8 C0.40644386 5.35139573 0.25790731 2.70802678 0 0 Z " fill="#308D59" transform="translate(108,22)"/>
<path d="M0 0 C-1.98 0.99 -1.98 0.99 -4 2 C-4 2.33 -4 2.66 -4 3 C-8.1196377 4.29243536 -11.66831683 5.26252625 -16 5 C-13.74113183 2.43080808 -11.79979195 1.31999869 -8.5625 0.25 C-7.80066406 -0.01296875 -7.03882813 -0.2759375 -6.25390625 -0.546875 C-3.79486911 -1.04123949 -2.35327446 -0.79335904 0 0 Z " fill="#519E73" transform="translate(49,2)"/>
<path d="M0 0 C0.66 0.33 1.32 0.66 2 1 C0.44499019 4.81684226 -2.03595495 7.19195732 -5 10 C-4.4454626 6.67277559 -3.75986957 3.8986087 -2 1 C-1.34 0.67 -0.68 0.34 0 0 Z " fill="#22824C" transform="translate(111,90)"/>
<path d="M0 0 C0.33 0 0.66 0 1 0 C1.21192221 5.19209404 0.5912689 9.126739 -1 14 C-1.66 14 -2.32 14 -3 14 C-2.58846263 9.02906176 -2.20399168 4.55491614 0 0 Z " fill="#3A8D5E" transform="translate(4,37)"/>
<path d="M0 0 C0 0.66 0 1.32 0 2 C-0.66 2 -1.32 2 -2 2 C-2 2.66 -2 3.32 -2 4 C-2.99 4.495 -2.99 4.495 -4 5 C-3.67 7.97 -3.34 10.94 -3 14 C-3.99 13.34 -4.98 12.68 -6 12 C-6.78504673 5.04672897 -6.78504673 5.04672897 -4.125 1.5 C-2 0 -2 0 0 0 Z " fill="#E0FAEB" transform="translate(32,45)"/>
<path d="M0 0 C0.66 0.99 1.32 1.98 2 3 C-1.61973402 4.31626692 -4.09567131 5 -8 5 C-8 4.34 -8 3.68 -8 3 C-5.08235 1.0549 -3.37462715 0.54723683 0 0 Z " fill="#2A8654" transform="translate(80,114)"/>
<path d="M0 0 C1.65 0 3.3 0 5 0 C5 0.66 5 1.32 5 2 C6.8871875 1.690625 6.8871875 1.690625 8.8125 1.375 C12.4014758 0.78664331 12.75073878 0.83382585 16 3 C12.66355017 4.09404518 10.2934212 3.89669485 6.875 3.1875 C6.00617187 3.01605469 5.13734375 2.84460937 4.2421875 2.66796875 C2 2 2 2 0 0 Z " fill="#D4F1E0" transform="translate(29,59)"/>
<path d="M0 0 C5.27315333 0.4452885 10.01770224 1.08373163 15 3 C15 3.33 15 3.66 15 4 C7.57142857 4.14285714 7.57142857 4.14285714 4 3 C4 2.34 4 1.68 4 1 C2.68 0.67 1.36 0.34 0 0 Z " fill="#66B189" transform="translate(68,0)"/>
<path d="M0 0 C2.27183419 2.46115371 2.9736202 3.73620199 3.3125 7.125 C3 10 3 10 1 12 C-0.3271261 8.0186217 -0.06915913 4.14954773 0 0 Z " fill="#27824F" transform="translate(1,66)"/>
<path d="M0 0 C0.33 0 0.66 0 1 0 C1.3125 3.1875 1.3125 3.1875 1 7 C-1.5 9.9375 -1.5 9.9375 -4 12 C-4.33 11.01 -4.66 10.02 -5 9 C-4.34 9 -3.68 9 -3 9 C-2.67 8.01 -2.34 7.02 -2 6 C-1.34 6 -0.68 6 0 6 C0 4.02 0 2.04 0 0 Z " fill="#C1EAD4" transform="translate(55,60)"/>
<path d="M0 0 C3.10551666 0 4.35261084 0.5393715 7 2 C6.01 3.32 5.02 4.64 4 6 C2.68 5.34 1.36 4.68 0 4 C0 2.68 0 1.36 0 0 Z " fill="#108441" transform="translate(48,40)"/>
<path d="M0 0 C0 0.66 0 1.32 0 2 C-0.99 2 -1.98 2 -3 2 C-3 2.66 -3 3.32 -3 4 C-3.66 4 -4.32 4 -5 4 C-5.33 4.99 -5.66 5.98 -6 7 C-7.32 6.34 -8.64 5.68 -10 5 C-8.71186658 4.16121545 -7.41936744 3.32913217 -6.125 2.5 C-5.40570312 2.0359375 -4.68640625 1.571875 -3.9453125 1.09375 C-2 0 -2 0 0 0 Z " fill="#328B58" transform="translate(33,7)"/>
<path d="M0 0 C0.66 0.99 1.32 1.98 2 3 C1.01 3.99 0.02 4.98 -1 6 C-1.99 5.67 -2.98 5.34 -4 5 C-2.68 3.35 -1.36 1.7 0 0 Z " fill="#25854E" transform="translate(15,20)"/>
<path d="M0 0 C0.66 1.32 1.32 2.64 2 4 C1.01 4.99 0.02 5.98 -1 7 C-1 6.34 -1 5.68 -1 5 C-1.99 4.67 -2.98 4.34 -4 4 C-2.68 2.68 -1.36 1.36 0 0 Z " fill="#1B7D44" transform="translate(20,15)"/>
<path d="M0 0 C3.85645121 -0.22036864 6.49223216 0.39644899 10 2 C9.67 2.66 9.34 3.32 9 4 C6.03 3.01 3.06 2.02 0 1 C0 0.67 0 0.34 0 0 Z " fill="#348858" transform="translate(33,113)"/>
<path d="M0 0 C2.91517292 1.07401108 4.77810176 1.77810176 7 4 C4 5 4 5 1.8125 4.0625 C1.214375 3.711875 0.61625 3.36125 0 3 C0 2.01 0 1.02 0 0 Z " fill="#3A9060" transform="translate(84,4)"/>
</svg>
